<svg xmlns="http://www.w3.org/2000/svg" xmlns:xlink="http://www.w3.org/1999/xlink" width="100" zoomAndPan="magnify" viewBox="0 0 75 74.999997" height="100" preserveAspectRatio="xMidYMid meet" version="1.0"><defs><clipPath id="4793e6dbd3"><path d="M 23 23 L 52 23 L 52 52.242188 L 23 52.242188 Z M 23 23 " clip-rule="nonzero"/></clipPath></defs><rect x="-7.5" width="90" fill="#ffffff" y="-7.5" height="89.999996" fill-opacity="1"/><rect x="-7.5" width="90" fill="#ffffff" y="-7.5" height="89.999996" fill-opacity="1"/><rect x="-7.5" width="90" fill="#ffffff" y="-7.5" height="89.999996" fill-opacity="1"/><g clip-path="url(#4793e6dbd3)"><path fill="#B6B6B6" d="M 41.558594 37.765625 L 51.023438 28.222656 C 52.144531 27.09375 52.144531 25.257812 51.023438 24.128906 C 49.898438 22.996094 48.082031 22.996094 46.960938 24.128906 L 37.496094 33.667969 L 28.03125 24.128906 C 26.910156 22.996094 25.089844 22.996094 23.96875 24.128906 C 22.847656 25.257812 22.847656 27.09375 23.96875 28.226562 L 33.433594 37.765625 L 23.945312 47.328125 C 22.824219 48.457031 22.824219 50.292969 23.945312 51.421875 C 24.507812 51.988281 25.242188 52.273438 25.976562 52.273438 C 26.710938 52.273438 27.449219 51.988281 28.007812 51.421875 L 37.496094 41.859375 L 46.957031 51.398438 C 47.519531 51.964844 48.253906 52.25 48.988281 52.25 C 49.722656 52.25 50.460938 51.964844 51.019531 51.398438 C 52.144531 50.269531 52.144531 48.433594 51.019531 47.304688 Z M 41.558594 37.765625 " fill-opacity="1" fill-rule="nonzero"/></g></svg>